<svg xmlns="http://www.w3.org/2000/svg" width="33.378" height="22.948" viewBox="0 0 33.378 22.948"><defs><style>.a{fill:#fff;}</style></defs><g transform="translate(0 -80)"><g transform="translate(22.126 84.231)"><path class="a" d="M339.392,152.31l11.253,7.114V144.9Z" transform="translate(-339.392 -144.896)"/></g><g transform="translate(0 84.231)"><path class="a" d="M0,144.9v14.528l11.253-7.114Z" transform="translate(0 -144.896)"/></g><g transform="translate(0.063 80)"><path class="a" d="M32.19,80H2.984A2.06,2.06,0,0,0,.96,81.775L17.587,92.73,34.213,81.775A2.06,2.06,0,0,0,32.19,80Z" transform="translate(-0.96 -80)"/></g><g transform="translate(0.067 92.903)"><path class="a" d="M21.172,277.922l-2.952,1.944a1.047,1.047,0,0,1-1.147,0l-2.952-1.946L1.024,286.2a2.057,2.057,0,0,0,2.019,1.761H32.249a2.057,2.057,0,0,0,2.019-1.761Z" transform="translate(-1.024 -277.92)"/></g></g></svg>