<svg xmlns="http://www.w3.org/2000/svg" width="23.653" height="23.653" viewBox="0 0 23.653 23.653"><defs><style>.a{fill:#fff;}</style></defs><g transform="translate(-8 -8)"><path class="a" d="M28.837,8H10.816A2.817,2.817,0,0,0,8,10.816V28.837a2.817,2.817,0,0,0,2.816,2.816H28.837a2.817,2.817,0,0,0,2.816-2.816V10.816A2.817,2.817,0,0,0,28.837,8ZM15.321,17.011v10.7H11.942v-10.7ZM11.942,13.9a1.5,1.5,0,0,1,1.689-1.391A1.524,1.524,0,0,1,15.321,13.9a1.5,1.5,0,0,1-1.689,1.424A1.524,1.524,0,0,1,11.942,13.9ZM27.711,27.711H24.332V22.079A2.024,2.024,0,0,0,22.361,19.8h-.045c-1.363,0-1.926,1.159-1.926,2.275v5.632H17.011v-10.7H20.39v1.442a4.218,4.218,0,0,1,3.272-1.442c2.235,0,4.049,1.538,4.049,4.652Zm0,0"/></g></svg>