<svg xmlns="http://www.w3.org/2000/svg" width="72.915" height="50.129" viewBox="0 0 72.915 50.129"><defs><style>.a{fill:#353535;}</style></defs><g transform="translate(0 -80)"><g transform="translate(48.333 89.242)"><g transform="translate(0 0)"><path class="a" d="M339.392,161.092l24.581,15.54V144.9Z" transform="translate(-339.392 -144.896)"/></g></g><g transform="translate(0 89.242)"><g transform="translate(0 0)"><path class="a" d="M0,144.9v31.736l24.581-15.54Z" transform="translate(0 -144.896)"/></g></g><g transform="translate(0.137 80)"><g transform="translate(0 0)"><path class="a" d="M69.181,80H5.38A4.5,4.5,0,0,0,.96,83.878l36.321,23.93L73.6,83.878A4.5,4.5,0,0,0,69.181,80Z" transform="translate(-0.96 -80)"/></g></g><g transform="translate(0.146 108.186)"><path class="a" d="M45.037,277.925l-6.448,4.247a2.288,2.288,0,0,1-2.506,0l-6.448-4.252-28.61,18.1a4.493,4.493,0,0,0,4.411,3.846h63.8a4.493,4.493,0,0,0,4.411-3.846Z" transform="translate(-1.024 -277.92)"/></g></g></svg>