<svg xmlns="http://www.w3.org/2000/svg" width="248.38" height="106.801" viewBox="0 0 248.38 106.801"><defs><style>.a{fill:#ff9401;}.b,.f{fill:#414042;}.c{fill:#f79c1e;}.d{fill:#f7991e;}.e{fill:#fff;stroke:#fff;stroke-miterlimit:10;stroke-width:0.1px;font-size:21px;}.e,.f{font-family:MicrosoftSansSerif, Microsoft Sans Serif;}.f{font-size:3px;}.g{fill:#f7971e;}</style></defs><g transform="translate(-50.26 -134.13)"><path class="a" d="M220.849,238.908c15.016-10.685,33.747-19.991,53.328-27.17-4.234-21.069-31.013-44.758-53.328-44.758s-49.365,23.58-53.6,44.655C188.072,218.652,206.93,228.247,220.849,238.908Z" transform="translate(-46.526 -13.064)"/><g transform="translate(50.26 159.957)"><g transform="translate(117.534 7.077)"><path class="b" d="M253.049,188.76v11.811a1.427,1.427,0,1,1-.711,0V188.76c-.675,3.192-2.488,9.3-6.939,12.859l3.65,6.939v2.066h7.3v-2.066l3.65-6.939C255.537,198.06,253.718,191.958,253.049,188.76Z" transform="translate(-245.4 -188.76)"/></g><g transform="translate(0 30.682)"><path class="c" d="M174.45,286.71s-42.866-23.02-124.19-23.02v5.746c81.318,0,124.19,23.02,124.19,23.02s42.866-23.02,124.19-23.02V263.69C217.322,263.684,174.45,286.71,174.45,286.71Z" transform="translate(-50.26 -242.163)"/><path class="b" d="M297.046,252.235l-.09-8.625c-73.217,0-119.775,29.266-119.775,29.266S130.207,243.05,56.99,243.05l.223,9.191c83.528,0,119.938,24.122,119.938,24.122S213.518,252.235,297.046,252.235Z" transform="translate(-52.936 -233.955)"/><path class="d" d="M71.09,227.95v5.77c63.471,0,111.644,31.362,111.644,31.362S134.314,227.95,71.09,227.95Z" transform="translate(-58.544 -227.95)"/><path class="d" d="M367.734,227.95v5.77c-63.471,0-111.644,31.362-111.644,31.362S304.516,227.95,367.734,227.95Z" transform="translate(-132.117 -227.95)"/></g><text class="e" transform="translate(100.839 45.158)"><tspan x="0" y="0">OSE</tspan></text><g transform="translate(113.999)"><path class="b" d="M261.141,180.268l-10.805-3.258-10.805,3.258,10.805,3.252Z" transform="translate(-239.53 -177.01)"/><path class="b" d="M248.5,185.82v1.367a8.933,8.933,0,0,0,10.805,0V185.82l-5.4,1.584Z" transform="translate(-243.097 -180.514)"/><path class="b" d="M245.887,186.464a.4.4,0,1,1-.4-.4A.4.4,0,0,1,245.887,186.464Z" transform="translate(-241.737 -180.609)"/><path class="b" d="M245.891,188.135h-.8l.169-1.174h.464Z" transform="translate(-241.741 -180.967)"/><rect class="b" width="0.169" height="1.319" transform="translate(3.668 4.258)"/></g></g><text class="f" transform="translate(153.316 209.247)"><tspan x="0" y="0">Online School of Education</tspan></text><g transform="translate(173.131 134.13)"><rect class="g" width="2.909" height="15.293"/></g><g transform="translate(148.709 137.951)"><rect class="g" width="2.915" height="15.293" transform="translate(0 0.997) rotate(-20.004)"/></g><g transform="translate(127.392 149.956)"><rect class="g" width="2.915" height="15.293" transform="translate(0 1.874) rotate(-40.002)"/></g><g transform="translate(209.721 149.963)"><rect class="g" width="15.287" height="2.909" transform="matrix(0.643, -0.766, 0.766, 0.643, 0, 11.702)"/></g><g transform="translate(222.322 165.247)"><rect class="g" width="15.287" height="2.909" transform="matrix(0.867, -0.499, 0.499, 0.867, 0, 7.631)"/></g><g transform="translate(112.49 165.247)"><rect class="g" width="2.909" height="15.287" transform="matrix(0.499, -0.867, 0.867, 0.499, 0, 2.521)"/></g><g transform="translate(192.494 137.963)"><rect class="g" width="15.287" height="2.915" transform="translate(0 14.36) rotate(-69.958)"/></g></g></svg>