<svg xmlns="http://www.w3.org/2000/svg" width="72.282" height="72.434" viewBox="0 0 72.282 72.434"><defs><style>.a{opacity:0;}.b{fill:#f2a249;}</style></defs><g class="a" transform="translate(-0.539 0)"><g transform="translate(0.539 0)"><path class="b" d="M70.926,53.159,60.817,43.051a6.723,6.723,0,0,0-11.191,2.527,6.879,6.879,0,0,1-7.942,4.332c-7.22-1.805-16.968-11.191-18.773-18.773-1.083-3.249,1.083-6.859,4.332-7.942A6.723,6.723,0,0,0,29.77,12L19.662,1.9a7.21,7.21,0,0,0-9.747,0L3.055,8.755c-6.859,7.22.722,26.354,17.69,43.322s36.1,24.91,43.322,17.69l6.859-6.859A7.21,7.21,0,0,0,70.926,53.159Z" transform="translate(-0.539 0)"/></g></g></svg>