<svg xmlns="http://www.w3.org/2000/svg" width="33.57" height="33.641" viewBox="0 0 33.57 33.641"><defs><style>.a{fill:#fff;}</style></defs><g transform="translate(-0.539 0)"><g transform="translate(0.539 0)"><path class="a" d="M33.229,24.689l-4.695-4.695a3.123,3.123,0,0,0-5.2,1.174,3.2,3.2,0,0,1-3.689,2.012c-3.353-.838-7.88-5.2-8.719-8.719a3.039,3.039,0,0,1,2.012-3.689,3.122,3.122,0,0,0,1.174-5.2L9.42.88a3.349,3.349,0,0,0-4.527,0L1.708,4.066c-3.186,3.353.335,12.24,8.216,20.12S26.69,35.755,30.043,32.4l3.186-3.186A3.349,3.349,0,0,0,33.229,24.689Z" transform="translate(-0.539 0)"/></g></g></svg>