<svg xmlns="http://www.w3.org/2000/svg" width="63.676" height="63.676" viewBox="0 0 63.676 63.676"><defs><style>.a{fill:#353535;}</style></defs><path class="a" d="M31.846,0H31.83A31.818,31.818,0,0,0,6.061,50.5L2.093,62.327l12.238-3.912A31.833,31.833,0,1,0,31.846,0ZM50.372,44.959c-.768,2.169-3.817,3.968-6.248,4.493-1.664.354-3.836.637-11.151-2.4-9.356-3.876-15.382-13.384-15.851-14-.45-.617-3.781-5.034-3.781-9.6A10.164,10.164,0,0,1,16.6,15.7a4.626,4.626,0,0,1,3.255-1.142c.394,0,.748.02,1.067.036.935.04,1.4.1,2.022,1.572.768,1.851,2.639,6.419,2.861,6.889a1.9,1.9,0,0,1,.135,1.723,5.5,5.5,0,0,1-1.031,1.461c-.47.541-.915.955-1.385,1.536-.43.505-.915,1.047-.374,1.982a28.259,28.259,0,0,0,5.166,6.419,23.407,23.407,0,0,0,7.466,4.6,2.013,2.013,0,0,0,2.245-.354,38.522,38.522,0,0,0,2.487-3.3,1.777,1.777,0,0,1,2.284-.692c.86.3,5.409,2.547,6.344,3.013s1.552.692,1.779,1.086A7.929,7.929,0,0,1,50.372,44.959Z"/></svg>